<?xml version="1.0" encoding="UTF-8"?>
<svg id="Layer_1" data-name="Layer 1" xmlns="http://www.w3.org/2000/svg" viewBox="0 0 44.88 39.12">
  <g>
    <path d="M41.51,1.23l2.18,5.08-5.18,9.08c.57,1.15,3.03,3.35,2.43,4.65-.69,1.5-6.35,4.03-7.89,5l-7.5,13.02-6.4.07-7.51-13.25c-1.61-.44-7.88-3.89-8.19-5.29-.18-.81,2.22-3.5,2.52-4.43L.95,6.31c-.03-.34,1.87-4.34,2.18-4.73.24-.31.38-.43.8-.4l37.58.05ZM40.07,3.38l-34.93-.04c-.74.14-1.43,2.22-1.74,2.94l4.01,7.08c4.75-5.39,10.97-10.15,18.61-7.99,2.77.78,5.79,2.82,7.88,4.77.55.52,2.82,3.32,3.21,3.22s3.44-6.31,4.13-7.08c-.21-.42-1.05-2.82-1.18-2.9ZM33.42,12.88c-2.5-3.02-6.81-5.9-10.85-5.98-4.61-.08-8.34,2.72-11.59,5.62,2.47-.32,4.83-1.22,7.31-1.52,5.25-.64,10.15.3,15.13,1.88ZM21.18,12.94c-3.46.71-3.3,6.66.69,7.08,5.35.56,5.42-8.34-.69-7.08ZM17.43,13.36c-2.93.3-5.71,1.32-8.36,2.51l4.13,7.44c4.11,1.47,8.32,2.1,12.67,1.47,1.13-.16,4.6-.93,5.47-1.45,1.02-.61,3.05-5.9,4.22-6.99-.01-.52-7.62-3.18-8.11-2.74,1.2,2.95.35,6.5-2.65,7.97-5.13,2.52-10.4-3.34-7.38-8.2ZM7.4,17.41c-.42-.29-1.44,1.58-1.41,1.76.06.32,3.33,2.49,3.56,2.29-.4-.52-1.92-3.89-2.15-4.05ZM35.09,21.47c.17.16,3.56-2.01,3.56-2.26l-1.29-1.79-2.27,4.05ZM29.84,26c-2.77.79-5.82,1.32-8.71,1.19-.57-.03-6.09-1.14-6.09-.83l5.36,9.44c.73.53,2.66.05,3.61.24l5.84-10.04Z"/>
  </g>
</svg>