<?xml version="1.0" encoding="UTF-8"?>
<svg id="Layer_1" data-name="Layer 1" xmlns="http://www.w3.org/2000/svg" viewBox="0 0 43.2 43.2">
  <path d="M15.99,1.91v5.97h4.53V1.91h1.91v5.97h4.53V1.91c.4,0,2.15-.14,2.15.36v5.61c0,.07,1-.06,1.31,0,.54.11,4.3,3.99,4.67,4.63.31.53.18,1.28.22,1.33.2.21,4.93-.3,5.5.1.42.29.16,1.52.22,2.04h-5.73v4.3h5.37c.5,0,.36,1.75.36,2.15h-5.73v4.53h5.73c0,.4.14,2.15-.36,2.15h-5.37c-.08,0,.12.95-.23,1.57-.14.24-3.7,3.8-3.95,3.95-.41.25-.61-.01-.79.05-.04.01-.04.36-.21.4-.3.07-.97-.06-1.03,0-.21.19.24,4.76-.03,5.58-.22.66-1.53.32-2.11.39v-5.97h-4.53v5.97h-1.91v-5.97h-4.53v5.97c-.4,0-2.15.14-2.15-.36v-5.61c0-.07-1,.06-1.31,0-.32-.06-4.43-3.97-4.67-4.4-.35-.61-.15-1.57-.23-1.57H2.27c-.5,0-.36-1.75-.36-2.15h5.73v-4.53H1.91c0-.4-.14-2.15.36-2.15h5.37v-4.3H1.91c0-.4-.14-2.15.36-2.15h5.37c.07,0-.09-.96.12-1.43.14-.31,4.3-4.26,4.65-4.42.46-.21,1.38-.07,1.43-.12.2-.19-.23-4.77.03-5.58.22-.66,1.53-.32,2.11-.39ZM13.3,10.07c-.39.12-3.43,3.26-3.5,3.66l.12,16.1c.82.6,2.51,2.94,3.34,3.1l16.82-.12c.6-.82,2.94-2.51,3.1-3.34l-.12-16.1c-.85-.63-2.73-3.18-3.58-3.34l-16.18.04Z"/>
  <path d="M18.62,19.09h-3.94s-.36-.33-.36-.36v-3.58s.33-.36.36-.36h3.58s.36.33.36.36v3.94Z"/>
  <path d="M24.34,19.09v-3.94s.33-.36.36-.36h3.58s.36.33.36.36v3.58s-.33.36-.36.36h-3.94Z"/>
  <path d="M18.62,24.82v3.94s-.33.36-.36.36h-3.58s-.36-.33-.36-.36v-3.58s.33-.36.36-.36h3.94Z"/>
  <path d="M24.34,24.82h3.94s.36.33.36.36v3.58s-.33.36-.36.36h-3.58s-.36-.33-.36-.36v-3.94Z"/>
</svg>