<?xml version="1.0" encoding="UTF-8"?>
<svg id="Layer_1" data-name="Layer 1" xmlns="http://www.w3.org/2000/svg" viewBox="0 0 39.84 43.68">
  <path d="M32.21,7.64c.07.07.3,1.83.24,1.91-.13.18-3.42.69-4.23,1.14-.92.5.32.65.81.97,11.28,7.16,15.88,24.62.92,30.12-7.55,2.78-13.62.28-19.34-4.77-4.92-4.35-5.2-6.74-5.37-13.24-.03-1.25-.02-2.48.24-3.7-1.08-.35-2.15-.7-3.28-.9-.38-.07-1.43-.01-1.49-.07-.08-.08.06-1.78,0-2.15,4.16-.2,7.36,2.97,11.45,2.63v2.15c-1.66.19-3.19-.32-4.77-.72-.31.35.33,8.37.58,9.32.97,3.66,8.47,8.86,12.01,9.94,6.85,2.09,16.45-2.1,17.23-9.84.77-7.65-4.45-15.37-11.54-18-.41.1-2.72,3.64-3.24,3.93-.61.34-1.68-.71-1.64-1.16.08-.94,4.14-4.96,5.14-5.61.88-.57,5.62-2.64,6.28-1.96Z"/>
  <path d="M25.53,26.5c.48,1.06,1.01,1.94,1.31,3.1.62,2.43.2,4.42-1.07,6.58-.15.09-1.71-.68-1.81-.85-.09-.15.99-2.46,1.07-3.26.14-1.48-.67-3.87-1.75-4.88-.7-.66-.66-.52-1.32-1.29-1.54-1.79-3.74-3.5-3.82-6.08l1.9-.49c-.04,1.29,2.77,4.92,3.75,5.21.82.25,3.91-.58,5.43-.43.95.1,2.93.46,2.64,1.67-.49,2.05-1.42.63-2.64.47s-2.48.19-3.7.25Z"/>
  <path d="M17.4.25c.77,2.16,1.13,4.37.97,6.67,2.83-1.62,7.14-4.3,10.41-4.52,1.51-.1,1.14,2.03,1.04,2.13-.05.04-.92-.01-1.25.06-2.35.51-5.5,1.93-7.58,3.16-1.41.83-2.47,1.87-3.49,2.82-.2.19-.48.87-.68.87-.12,0-1.1-1.03-1.55-.95,1.18-1.84,1.14-4.17.95-6.32-.07-.82-.82-2.87-.73-3.31.04-.21,1.73-.75,1.91-.62Z"/>
  <path d="M1.67,12.65c-.08-.08-.36-2.15.12-2.15h4.29c.52,0,3.32,1.32,3.46,1.19.84-2.8.77-5.15-1.66-7.04l1.55-1.55c1.95,1.83,2.96,3.79,2.71,6.53-.07.77-.95,3.08-.89,3.32.14.55,2.59,2.36,2.6,3.15,0,.43-1.28,1.37-1.54,1.31-.15-.03-1.53-2.01-1.93-2.38-.68-.63-3.48-2.39-4.29-2.39-.62,0-4.26.16-4.41,0Z"/>
</svg>